<svg width="76" height="64" viewBox="0 0 76 64" fill="none" xmlns="http://www.w3.org/2000/svg">
<g clip-path="url(#clip0_10_26)">
<path d="M63.2344 44.7164C63.3638 54.0086 56.8516 61.796 48.1531 63.6038C46.1593 64.02 44.2883 62.4852 44.2883 60.4409V52.1575C44.2883 51.7447 44.6001 51.4018 45.0115 51.3552C48.3456 50.9789 50.9033 48.0291 50.6612 44.53C50.4455 41.3671 47.8911 38.8069 44.7428 38.5905C41.0106 38.3308 37.9022 41.2972 37.9022 44.9861C37.9022 44.9329 37.9022 44.8763 37.9022 44.823H25.3455C25.3953 39.2763 27.8071 34.2923 31.6222 30.8464C34.9496 27.8433 39.3419 26.0022 44.1622 25.9722C54.5227 25.9023 63.0917 34.3222 63.2344 44.7198V44.7164Z" fill="#00A281"/>
<path d="M37.9022 44.823C37.9486 50.5028 35.5136 55.61 31.6222 59.1258C28.2948 62.1289 23.9024 63.9667 19.0821 64C8.72166 64.0699 0.149307 55.65 0.00665519 45.2558C-0.122726 35.9636 6.38947 28.1762 15.0879 26.3651C17.0817 25.9489 18.9527 27.4837 18.9527 29.5279V37.8114C18.9527 38.2242 18.6409 38.5671 18.2295 38.6137C14.8955 38.9899 12.3377 41.9431 12.5799 45.4389C12.7988 48.6151 15.3732 51.1787 18.5381 51.3784C22.3067 51.6182 25.4251 48.5751 25.3389 44.8263L25.3455 44.8196C25.6839 44.8196 37.8391 44.8196 37.8988 44.8196L37.9022 44.823Z" fill="#00A281"/>
<path d="M12.6661 22.7428V3.22614C12.6661 1.44494 11.2263 0 9.45148 0H3.21463C1.43978 0 0 1.44494 0 3.22614V32.1848C0 35.7505 2.87957 38.6404 6.43258 38.6404H25.3355H56.9046C60.4576 38.6404 63.3372 35.7505 63.3372 32.1848V9.67508C63.3372 7.89388 64.777 6.44894 66.5518 6.44894H72.792C74.5635 6.44894 76 5.00733 76 3.22946C76 1.44827 74.5602 0.00332935 72.7854 0.00332935H53.889C52.1142 0.00332935 50.6744 1.45159 50.6744 3.23279V22.7461C50.6744 24.5273 49.2346 25.9722 47.4565 25.9722H15.8841C14.1092 25.9722 12.6694 24.5273 12.6694 22.7461L12.6661 22.7428Z" fill="#00A281"/>
<path d="M34.7871 6.57544H28.5502C26.7748 6.57544 25.3356 8.01983 25.3356 9.80157V16.2239C25.3356 18.0056 26.7748 19.45 28.5502 19.45H34.7871C36.5624 19.45 38.0017 18.0056 38.0017 16.2239V9.80157C38.0017 8.01983 36.5624 6.57544 34.7871 6.57544Z" fill="#00A281"/>
</g>
<defs>
<clipPath id="clip0_10_26">
<rect width="76" height="64" fill="white"/>
</clipPath>
</defs>
</svg>
